<svg xmlns="http://www.w3.org/2000/svg" version="1.1" xmlns:xlink="http://www.w3.org/1999/xlink" xmlns:svgjs="http://svgjs.com/svgjs" width="1440" height="1560" preserveAspectRatio="none" viewBox="0 0 1440 1560"><g mask="url(&quot;#SvgjsMask1026&quot;)" fill="none"><rect width="1440" height="1560" x="0" y="0" fill="rgba(50, 78, 207, 1)"></rect><path d="M1560 1560L0 1560 L0 905.97Q-3.36 830.61, 72 827.25Q85.22 768.47, 144 781.69Q215.28 732.97, 264 804.25Q306.77 775.02, 336 817.79Q414.55 824.34, 408 902.89Q518.18 941.07, 480 1051.25Q431.98 883.23, 600 835.21Q617.32 780.53, 672 797.84Q699.47 753.31, 744 780.78Q835.29 752.07, 864 843.36Q993.81 901.17, 936 1030.99Q882.56 857.55, 1056 804.1Q1199.07 875.17, 1128 1018.25Q1180 998.25, 1200 1050.25Q1232.3 962.55, 1320 994.85Q1334.87 889.72, 1440 904.58Q1493.15 837.74, 1560 890.89z" fill="rgba(44, 58, 210, 1)"></path><path d="M1512 1560L0 1560 L0 1117.26Q-12.73 1032.53, 72 1019.81Q119.89 947.7, 192 995.59Q242.69 926.28, 312 976.97Q374.94 967.91, 384 1030.85Q534.78 1061.63, 504 1212.41Q553.5 1189.91, 576 1239.4Q579.05 1170.45, 648 1173.49Q676 1081.49, 768 1109.48Q814.05 1035.53, 888 1081.59Q978.9 1052.49, 1008 1143.38Q1028.67 1044.05, 1128 1064.72Q1149.32 966.04, 1248 987.36Q1278.26 945.62, 1320 975.88Q1386.55 970.43, 1392 1036.98Q1504.33 1029.31, 1512 1141.64z" fill="rgba(94, 104, 210, 1)"></path><path d="M1560 1560L0 1560 L0 1412.08Q34.6 1374.67, 72 1409.27Q99.27 1316.54, 192 1343.81Q272.95 1304.76, 312 1385.72Q399.25 1352.97, 432 1440.23Q481.67 1369.9, 552 1419.57Q528.96 1276.53, 672 1253.49Q755.8 1265.29, 744 1349.09Q819.32 1304.41, 864 1379.73Q920.29 1364.02, 936 1420.31Q950.64 1314.95, 1056 1329.59Q1092.75 1246.34, 1176 1283.1Q1200.43 1187.53, 1296 1211.96Q1315.39 1159.35, 1368 1178.74Q1410.37 1149.11, 1440 1191.48Q1524.6 1156.08, 1560 1240.68z" fill="rgba(38, 57, 145, 1)"></path><path d="M1464 1560L0 1560 L0 1559.96Q39.89 1527.85, 72 1567.74Q157.29 1533.03, 192 1618.32Q202.34 1508.65, 312 1518.99Q317.54 1452.53, 384 1458.07Q400.67 1402.74, 456 1419.41Q482 1373.41, 528 1399.42Q608.01 1359.43, 648 1439.43Q792.63 1464.07, 768 1608.7Q755.93 1476.63, 888 1464.56Q907.49 1412.05, 960 1431.53Q1004.54 1404.07, 1032 1448.61Q1129.92 1426.53, 1152 1524.46Q1229.94 1482.4, 1272 1560.35Q1316.77 1533.12, 1344 1577.89Q1381.75 1495.64, 1464 1533.39z" fill="rgba(255, 255, 255, 1)"></path></g><defs><mask id="SvgjsMask1026"><rect width="1440" height="1560" fill="#ffffff"></rect></mask></defs></svg>