<svg xmlns="http://www.w3.org/2000/svg" version="1.1" xmlns:xlink="http://www.w3.org/1999/xlink" xmlns:svgjs="http://svgjs.com/svgjs" width="1440" height="560" preserveAspectRatio="none" viewBox="0 0 1440 560"><g mask="url(&quot;#SvgjsMask1000&quot;)" fill="none"><rect width="1440" height="560" x="0" y="0" fill="#0e2a47"></rect><path d="M1111.78 514.96L1127.91 514.96L1127.91 531.09L1111.78 531.09z" stroke="#037b0b"></path><path d="M491.61 48.66L501.56 48.66L501.56 55.23L491.61 55.23z" fill="#d3b714"></path><path d="M814.83 474.27L829.9 474.27L829.9 488.52L814.83 488.52z" fill="#d3b714"></path><path d="M311.08 475.44L334.83 475.44L334.83 499.19L311.08 499.19z" fill="#e73635"></path><path d="M957.25 441.96 a4.61 4.61 0 1 0 9.22 0 a4.61 4.61 0 1 0 -9.22 0z" stroke="#d3b714"></path><path d="M738.31 148.99L765.04 148.99L765.04 175.72L738.31 175.72z" fill="#037b0b"></path><path d="M290.39 123.33 a26.54 26.54 0 1 0 53.08 0 a26.54 26.54 0 1 0 -53.08 0z" stroke="#d3b714"></path><path d="M45.95 69.4 a3.71 3.71 0 1 0 7.42 0 a3.71 3.71 0 1 0 -7.42 0z" fill="#d3b714"></path><path d="M1244.54 411.46L1291.7 411.46L1291.7 420.53L1244.54 420.53z" stroke="#e73635"></path><path d="M1314.52 508.94 a20.09 20.09 0 1 0 40.18 0 a20.09 20.09 0 1 0 -40.18 0z" fill="#037b0b"></path><path d="M144.89 555.23L171.07 555.23L171.07 587.73L144.89 587.73z" fill="#e73635"></path><path d="M980.37 516.54a0.97 0.97 0 1 0 1.21 1.51z" fill="#e73635"></path><path d="M1253.35 151.33L1290.23 151.33L1290.23 188.21L1253.35 188.21z" fill="#e73635"></path><path d="M1026.66 498.34L1031.01 498.34L1031.01 536.1L1026.66 536.1z" stroke="#037b0b"></path><path d="M699.2 112.59 a27.61 27.61 0 1 0 55.22 0 a27.61 27.61 0 1 0 -55.22 0z" fill="#037b0b"></path><path d="M1009.93 406.77 a29.42 29.42 0 1 0 58.84 0 a29.42 29.42 0 1 0 -58.84 0z" stroke="#e73635"></path><path d="M900.75 45.97L926.75 45.97L926.75 71.97L900.75 71.97z" stroke="#037b0b"></path><path d="M1232.39 298.03a53.92 53.92 0 1 0 89.15-60.68z" stroke="#e73635"></path><path d="M505.04 251.34L515.61 251.34L515.61 257.11L505.04 257.11z" stroke="#d3b714"></path><path d="M317.54 309.97L350.28 309.97L350.28 343.38L317.54 343.38z" stroke="#e73635"></path><path d="M801.85 123.84a41.81 41.81 0 1 0 44.77 70.63z" stroke="#037b0b"></path><path d="M828.64 118.42L840.23 118.42L840.23 134.7L828.64 134.7z" stroke="#e73635"></path><path d="M1258.62 409.25L1288.55 409.25L1288.55 411.65L1258.62 411.65z" fill="#037b0b"></path><path d="M122.99 201.28L149.98 201.28L149.98 237.36L122.99 237.36z" stroke="#e73635"></path><path d="M1204.43 333.02a15.17 15.17 0 1 0 30.2 2.86z" stroke="#d3b714"></path><path d="M1000.06 343.77a55.58 55.58 0 1 0 111-5.94z" fill="#e73635"></path><path d="M1068.36 50.31a2.05 2.05 0 1 0 3.39 2.31z" stroke="#d3b714"></path><path d="M838.89 411.88a11.05 11.05 0 1 0 6.93-20.98z" stroke="#d3b714"></path><path d="M70.6 447.75L77.61 447.75L77.61 454.76L70.6 454.76z" stroke="#037b0b"></path><path d="M791.18 400.48L799.16 400.48L799.16 438.11L791.18 438.11z" fill="#d3b714"></path><path d="M993.23 271.68a46.4 46.4 0 1 0-0.8 92.79z" stroke="#d3b714"></path><path d="M519.49 192.68a24.32 24.32 0 1 0-13.29 46.79z" fill="#e73635"></path><path d="M453.21 137.8a47.34 47.34 0 1 0-46.34 82.57z" stroke="#e73635"></path></g><defs><mask id="SvgjsMask1000"><rect width="1440" height="560" fill="#ffffff"></rect></mask></defs></svg>